solid Exported from Blender-2.71 (sub 0)
facet normal 0.098017 -0.000001 0.995185
outer loop
vertex 0.000000 -1.529578 1.529575
vertex 0.298406 -1.529578 1.500185
vertex 0.298406 1.529575 1.500188
endloop
endfacet
facet normal 0.290285 -0.000001 0.956940
outer loop
vertex 0.298406 -1.529578 1.500185
vertex 0.585344 -1.529578 1.413143
vertex 0.585344 1.529575 1.413146
endloop
endfacet
facet normal 0.471397 -0.000001 0.881921
outer loop
vertex 0.585344 -1.529578 1.413143
vertex 0.849787 -1.529578 1.271795
vertex 0.849787 1.529576 1.271798
endloop
endfacet
facet normal 0.634393 -0.000001 0.773010
outer loop
vertex 0.849787 1.529576 1.271798
vertex 0.849787 -1.529578 1.271795
vertex 1.081574 -1.529578 1.081573
endloop
endfacet
facet normal 0.773010 -0.000001 0.634393
outer loop
vertex 1.081574 -1.529578 1.081573
vertex 1.271797 -1.529577 0.849786
vertex 1.271797 1.529576 0.849789
endloop
endfacet
facet normal 0.881921 -0.000000 0.471396
outer loop
vertex 1.271797 -1.529577 0.849786
vertex 1.413144 -1.529577 0.585342
vertex 1.413144 1.529576 0.585345
endloop
endfacet
facet normal 0.956940 -0.000000 0.290285
outer loop
vertex 1.413144 -1.529577 0.585342
vertex 1.500186 -1.529577 0.298404
vertex 1.500186 1.529576 0.298407
endloop
endfacet
facet normal 0.995185 -0.000000 0.098017
outer loop
vertex 1.500186 -1.529577 0.298404
vertex 1.529577 -1.529577 -0.000001
vertex 1.529577 1.529577 0.000001
endloop
endfacet
facet normal 0.995185 0.000000 -0.098017
outer loop
vertex 1.529577 1.529577 0.000001
vertex 1.529577 -1.529577 -0.000001
vertex 1.500186 -1.529576 -0.298407
endloop
endfacet
facet normal 0.956940 0.000000 -0.290285
outer loop
vertex 1.500186 -1.529576 -0.298407
vertex 1.413145 -1.529576 -0.585345
vertex 1.413145 1.529577 -0.585342
endloop
endfacet
facet normal 0.881921 0.000000 -0.471396
outer loop
vertex 1.413145 -1.529576 -0.585345
vertex 1.271797 -1.529576 -0.849789
vertex 1.271797 1.529577 -0.849786
endloop
endfacet
facet normal 0.773010 0.000001 -0.634394
outer loop
vertex 1.271797 -1.529576 -0.849789
vertex 1.081574 -1.529576 -1.081575
vertex 1.081574 1.529578 -1.081573
endloop
endfacet
facet normal 0.634394 0.000001 -0.773010
outer loop
vertex 1.081574 -1.529576 -1.081575
vertex 0.849787 -1.529576 -1.271798
vertex 0.849787 1.529578 -1.271795
endloop
endfacet
facet normal 0.471397 0.000001 -0.881921
outer loop
vertex 0.849787 -1.529576 -1.271798
vertex 0.585343 -1.529575 -1.413146
vertex 0.585343 1.529578 -1.413143
endloop
endfacet
facet normal 0.290284 0.000001 -0.956940
outer loop
vertex 0.585343 -1.529575 -1.413146
vertex 0.298405 -1.529575 -1.500188
vertex 0.298405 1.529578 -1.500185
endloop
endfacet
facet normal 0.098017 0.000001 -0.995185
outer loop
vertex 0.298405 -1.529575 -1.500188
vertex -0.000000 -1.529575 -1.529578
vertex -0.000000 1.529578 -1.529575
endloop
endfacet
facet normal -0.098018 0.000001 -0.995185
outer loop
vertex -0.000000 -1.529575 -1.529578
vertex -0.298406 -1.529575 -1.500187
vertex -0.298406 1.529578 -1.500185
endloop
endfacet
facet normal -0.290285 0.000001 -0.956940
outer loop
vertex -0.298406 -1.529575 -1.500187
vertex -0.585344 -1.529575 -1.413146
vertex -0.585344 1.529578 -1.413143
endloop
endfacet
facet normal -0.471397 0.000001 -0.881921
outer loop
vertex -0.585344 -1.529575 -1.413146
vertex -0.849788 -1.529576 -1.271797
vertex -0.849788 1.529578 -1.271795
endloop
endfacet
facet normal -0.634394 0.000001 -0.773010
outer loop
vertex -0.849788 -1.529576 -1.271797
vertex -1.081575 -1.529576 -1.081575
vertex -1.081575 1.529578 -1.081572
endloop
endfacet
facet normal -0.773011 0.000001 -0.634393
outer loop
vertex -1.081575 -1.529576 -1.081575
vertex -1.271797 -1.529576 -0.849788
vertex -1.271797 1.529577 -0.849785
endloop
endfacet
facet normal -0.881922 0.000000 -0.471396
outer loop
vertex -1.271797 -1.529576 -0.849788
vertex -1.413145 -1.529576 -0.585344
vertex -1.413145 1.529577 -0.585341
endloop
endfacet
facet normal -0.956941 0.000000 -0.290283
outer loop
vertex -1.413145 -1.529576 -0.585344
vertex -1.500186 -1.529576 -0.298406
vertex -1.500186 1.529577 -0.298403
endloop
endfacet
facet normal -0.995185 0.000000 -0.098017
outer loop
vertex -1.500186 -1.529576 -0.298406
vertex -1.529577 -1.529577 0.000000
vertex -1.529577 1.529577 0.000003
endloop
endfacet
facet normal -0.995185 -0.000000 0.098018
outer loop
vertex -1.529577 -1.529577 0.000000
vertex -1.500186 -1.529577 0.298406
vertex -1.500186 1.529576 0.298409
endloop
endfacet
facet normal -0.956940 -0.000000 0.290286
outer loop
vertex -1.500186 -1.529577 0.298406
vertex -1.413144 -1.529577 0.585344
vertex -1.413144 1.529576 0.585347
endloop
endfacet
facet normal -0.881921 -0.000000 0.471398
outer loop
vertex -1.413144 -1.529577 0.585344
vertex -1.271796 -1.529577 0.849787
vertex -1.271796 1.529576 0.849790
endloop
endfacet
facet normal -0.773010 -0.000001 0.634394
outer loop
vertex -1.271796 -1.529577 0.849787
vertex -1.081573 -1.529578 1.081574
vertex -1.081573 1.529576 1.081577
endloop
endfacet
facet normal -0.634392 -0.000001 0.773011
outer loop
vertex -1.081573 -1.529578 1.081574
vertex -0.849786 -1.529578 1.271796
vertex -0.849786 1.529576 1.271799
endloop
endfacet
facet normal -0.471395 -0.000001 0.881922
outer loop
vertex -0.849786 -1.529578 1.271796
vertex -0.585342 -1.529578 1.413144
vertex -0.585342 1.529575 1.413147
endloop
endfacet
facet normal -0.000000 -1.000000 -0.000001
outer loop
vertex -0.585344 -1.529575 -1.413146
vertex 1.413145 -1.529576 -0.585345
vertex -1.413144 -1.529577 0.585344
endloop
endfacet
facet normal -0.098017 -0.000001 0.995185
outer loop
vertex -0.298403 -1.529578 1.500185
vertex 0.000000 -1.529578 1.529575
vertex 0.000000 1.529575 1.529578
endloop
endfacet
facet normal -0.290283 -0.000001 0.956941
outer loop
vertex -0.585342 -1.529578 1.413144
vertex -0.298403 -1.529578 1.500185
vertex -0.298403 1.529575 1.500188
endloop
endfacet
facet normal -0.000000 1.000000 0.000001
outer loop
vertex 0.298405 1.529578 -1.500185
vertex -1.500186 1.529577 -0.298403
vertex 1.500186 1.529576 0.298407
endloop
endfacet
facet normal 0.098017 -0.000001 0.995185
outer loop
vertex 0.000000 1.529575 1.529578
vertex 0.000000 -1.529578 1.529575
vertex 0.298406 1.529575 1.500188
endloop
endfacet
facet normal 0.290285 -0.000001 0.956940
outer loop
vertex 0.298406 1.529575 1.500188
vertex 0.298406 -1.529578 1.500185
vertex 0.585344 1.529575 1.413146
endloop
endfacet
facet normal 0.471397 -0.000001 0.881921
outer loop
vertex 0.585344 1.529575 1.413146
vertex 0.585344 -1.529578 1.413143
vertex 0.849787 1.529576 1.271798
endloop
endfacet
facet normal 0.634393 -0.000001 0.773010
outer loop
vertex 1.081574 1.529576 1.081575
vertex 0.849787 1.529576 1.271798
vertex 1.081574 -1.529578 1.081573
endloop
endfacet
facet normal 0.773010 -0.000001 0.634394
outer loop
vertex 1.081574 1.529576 1.081575
vertex 1.081574 -1.529578 1.081573
vertex 1.271797 1.529576 0.849789
endloop
endfacet
facet normal 0.881921 -0.000000 0.471396
outer loop
vertex 1.271797 1.529576 0.849789
vertex 1.271797 -1.529577 0.849786
vertex 1.413144 1.529576 0.585345
endloop
endfacet
facet normal 0.956940 -0.000000 0.290285
outer loop
vertex 1.413144 1.529576 0.585345
vertex 1.413144 -1.529577 0.585342
vertex 1.500186 1.529576 0.298407
endloop
endfacet
facet normal 0.995185 -0.000000 0.098017
outer loop
vertex 1.500186 1.529576 0.298407
vertex 1.500186 -1.529577 0.298404
vertex 1.529577 1.529577 0.000001
endloop
endfacet
facet normal 0.995185 0.000000 -0.098017
outer loop
vertex 1.500186 1.529577 -0.298404
vertex 1.529577 1.529577 0.000001
vertex 1.500186 -1.529576 -0.298407
endloop
endfacet
facet normal 0.956940 0.000000 -0.290285
outer loop
vertex 1.500186 1.529577 -0.298404
vertex 1.500186 -1.529576 -0.298407
vertex 1.413145 1.529577 -0.585342
endloop
endfacet
facet normal 0.881921 0.000000 -0.471396
outer loop
vertex 1.413145 1.529577 -0.585342
vertex 1.413145 -1.529576 -0.585345
vertex 1.271797 1.529577 -0.849786
endloop
endfacet
facet normal 0.773010 0.000001 -0.634393
outer loop
vertex 1.271797 1.529577 -0.849786
vertex 1.271797 -1.529576 -0.849789
vertex 1.081574 1.529578 -1.081573
endloop
endfacet
facet normal 0.634394 0.000001 -0.773010
outer loop
vertex 1.081574 1.529578 -1.081573
vertex 1.081574 -1.529576 -1.081575
vertex 0.849787 1.529578 -1.271795
endloop
endfacet
facet normal 0.471397 0.000001 -0.881921
outer loop
vertex 0.849787 1.529578 -1.271795
vertex 0.849787 -1.529576 -1.271798
vertex 0.585343 1.529578 -1.413143
endloop
endfacet
facet normal 0.290284 0.000001 -0.956940
outer loop
vertex 0.585343 1.529578 -1.413143
vertex 0.585343 -1.529575 -1.413146
vertex 0.298405 1.529578 -1.500185
endloop
endfacet
facet normal 0.098017 0.000001 -0.995185
outer loop
vertex 0.298405 1.529578 -1.500185
vertex 0.298405 -1.529575 -1.500188
vertex -0.000000 1.529578 -1.529575
endloop
endfacet
facet normal -0.098018 0.000001 -0.995185
outer loop
vertex -0.000000 1.529578 -1.529575
vertex -0.000000 -1.529575 -1.529578
vertex -0.298406 1.529578 -1.500185
endloop
endfacet
facet normal -0.290285 0.000001 -0.956940
outer loop
vertex -0.298406 1.529578 -1.500185
vertex -0.298406 -1.529575 -1.500187
vertex -0.585344 1.529578 -1.413143
endloop
endfacet
facet normal -0.471397 0.000001 -0.881921
outer loop
vertex -0.585344 1.529578 -1.413143
vertex -0.585344 -1.529575 -1.413146
vertex -0.849788 1.529578 -1.271795
endloop
endfacet
facet normal -0.634394 0.000001 -0.773010
outer loop
vertex -0.849788 1.529578 -1.271795
vertex -0.849788 -1.529576 -1.271797
vertex -1.081575 1.529578 -1.081572
endloop
endfacet
facet normal -0.773011 0.000001 -0.634393
outer loop
vertex -1.081575 1.529578 -1.081572
vertex -1.081575 -1.529576 -1.081575
vertex -1.271797 1.529577 -0.849785
endloop
endfacet
facet normal -0.881922 0.000000 -0.471396
outer loop
vertex -1.271797 1.529577 -0.849785
vertex -1.271797 -1.529576 -0.849788
vertex -1.413145 1.529577 -0.585341
endloop
endfacet
facet normal -0.956941 0.000000 -0.290284
outer loop
vertex -1.413145 1.529577 -0.585341
vertex -1.413145 -1.529576 -0.585344
vertex -1.500186 1.529577 -0.298403
endloop
endfacet
facet normal -0.995185 0.000000 -0.098017
outer loop
vertex -1.500186 1.529577 -0.298403
vertex -1.500186 -1.529576 -0.298406
vertex -1.529577 1.529577 0.000003
endloop
endfacet
facet normal -0.995185 -0.000000 0.098018
outer loop
vertex -1.529577 1.529577 0.000003
vertex -1.529577 -1.529577 0.000000
vertex -1.500186 1.529576 0.298409
endloop
endfacet
facet normal -0.956940 -0.000000 0.290286
outer loop
vertex -1.500186 1.529576 0.298409
vertex -1.500186 -1.529577 0.298406
vertex -1.413144 1.529576 0.585347
endloop
endfacet
facet normal -0.881921 -0.000000 0.471398
outer loop
vertex -1.413144 1.529576 0.585347
vertex -1.413144 -1.529577 0.585344
vertex -1.271796 1.529576 0.849790
endloop
endfacet
facet normal -0.773009 -0.000001 0.634394
outer loop
vertex -1.271796 1.529576 0.849790
vertex -1.271796 -1.529577 0.849787
vertex -1.081573 1.529576 1.081577
endloop
endfacet
facet normal -0.634392 -0.000001 0.773011
outer loop
vertex -1.081573 1.529576 1.081577
vertex -1.081573 -1.529578 1.081574
vertex -0.849786 1.529576 1.271799
endloop
endfacet
facet normal -0.471395 -0.000001 0.881922
outer loop
vertex -0.849786 1.529576 1.271799
vertex -0.849786 -1.529578 1.271796
vertex -0.585342 1.529575 1.413147
endloop
endfacet
facet normal 0.000000 -1.000000 0.000000
outer loop
vertex 0.000000 -1.529578 1.529575
vertex -0.298403 -1.529578 1.500185
vertex 0.298406 -1.529578 1.500185
endloop
endfacet
facet normal 0.000000 -1.000000 -0.000001
outer loop
vertex -0.298403 -1.529578 1.500185
vertex -1.081573 -1.529578 1.081574
vertex -1.413144 -1.529577 0.585344
endloop
endfacet
facet normal -0.000000 -1.000000 -0.000000
outer loop
vertex -0.585342 -1.529578 1.413144
vertex -0.849786 -1.529578 1.271796
vertex -1.081573 -1.529578 1.081574
endloop
endfacet
facet normal -0.000000 -1.000000 -0.000001
outer loop
vertex -1.081573 -1.529578 1.081574
vertex -1.271796 -1.529577 0.849787
vertex -1.413144 -1.529577 0.585344
endloop
endfacet
facet normal 0.000000 -1.000000 -0.000001
outer loop
vertex -1.529577 -1.529577 0.000000
vertex -0.585344 -1.529575 -1.413146
vertex -1.500186 -1.529577 0.298406
endloop
endfacet
facet normal 0.000000 -1.000000 -0.000001
outer loop
vertex -1.413145 -1.529576 -0.585344
vertex -1.271797 -1.529576 -0.849788
vertex -1.500186 -1.529576 -0.298406
endloop
endfacet
facet normal -0.000000 -1.000000 -0.000001
outer loop
vertex -1.081575 -1.529576 -1.081575
vertex -0.585344 -1.529575 -1.413146
vertex -1.271797 -1.529576 -0.849788
endloop
endfacet
facet normal 0.000000 -1.000000 -0.000000
outer loop
vertex -1.081575 -1.529576 -1.081575
vertex -0.849788 -1.529576 -1.271797
vertex -0.585344 -1.529575 -1.413146
endloop
endfacet
facet normal -0.000000 -1.000000 -0.000002
outer loop
vertex -0.585344 -1.529575 -1.413146
vertex -0.298406 -1.529575 -1.500187
vertex -0.000000 -1.529575 -1.529578
endloop
endfacet
facet normal -0.000000 -1.000000 -0.000000
outer loop
vertex 0.298405 -1.529575 -1.500188
vertex 0.585343 -1.529575 -1.413146
vertex 0.849787 -1.529576 -1.271798
endloop
endfacet
facet normal -0.000000 -1.000000 -0.000000
outer loop
vertex 1.081574 -1.529576 -1.081575
vertex 0.298405 -1.529575 -1.500188
vertex 0.849787 -1.529576 -1.271798
endloop
endfacet
facet normal -0.000000 -1.000000 -0.000001
outer loop
vertex 1.081574 -1.529576 -1.081575
vertex 1.271797 -1.529576 -0.849789
vertex 1.413145 -1.529576 -0.585345
endloop
endfacet
facet normal -0.000000 -1.000000 -0.000001
outer loop
vertex 1.413145 -1.529576 -0.585345
vertex 1.500186 -1.529576 -0.298407
vertex 1.529577 -1.529577 -0.000001
endloop
endfacet
facet normal 0.000000 -1.000000 -0.000001
outer loop
vertex 1.413144 -1.529577 0.585342
vertex 0.585344 -1.529578 1.413143
vertex 1.500186 -1.529577 0.298404
endloop
endfacet
facet normal 0.000000 -1.000000 -0.000001
outer loop
vertex 1.413144 -1.529577 0.585342
vertex 1.271797 -1.529577 0.849786
vertex 1.081574 -1.529578 1.081573
endloop
endfacet
facet normal 0.000000 -1.000000 -0.000000
outer loop
vertex 1.081574 -1.529578 1.081573
vertex 0.849787 -1.529578 1.271795
vertex 0.585344 -1.529578 1.413143
endloop
endfacet
facet normal -0.000000 -1.000000 -0.000000
outer loop
vertex -0.298403 -1.529578 1.500185
vertex -0.585342 -1.529578 1.413144
vertex -1.081573 -1.529578 1.081574
endloop
endfacet
facet normal 0.000000 -1.000000 -0.000001
outer loop
vertex 0.585344 -1.529578 1.413143
vertex -0.298403 -1.529578 1.500185
vertex -1.413144 -1.529577 0.585344
endloop
endfacet
facet normal -0.000000 -1.000000 -0.000001
outer loop
vertex -0.298403 -1.529578 1.500185
vertex 0.585344 -1.529578 1.413143
vertex 0.298406 -1.529578 1.500185
endloop
endfacet
facet normal -0.290283 -0.000001 0.956941
outer loop
vertex -0.585342 1.529575 1.413147
vertex -0.585342 -1.529578 1.413144
vertex -0.298403 1.529575 1.500188
endloop
endfacet
facet normal 0.000000 -1.000000 -0.000001
outer loop
vertex -0.585344 -1.529575 -1.413146
vertex -1.413144 -1.529577 0.585344
vertex -1.500186 -1.529577 0.298406
endloop
endfacet
facet normal 0.000000 -1.000000 -0.000001
outer loop
vertex 1.413145 -1.529576 -0.585345
vertex 0.298405 -1.529575 -1.500188
vertex 1.081574 -1.529576 -1.081575
endloop
endfacet
facet normal 0.000000 -1.000000 -0.000001
outer loop
vertex 0.585344 -1.529578 1.413143
vertex 1.529577 -1.529577 -0.000001
vertex 1.500186 -1.529577 0.298404
endloop
endfacet
facet normal -0.000000 -1.000000 -0.000001
outer loop
vertex 1.413144 -1.529577 0.585342
vertex 1.081574 -1.529578 1.081573
vertex 0.585344 -1.529578 1.413143
endloop
endfacet
facet normal 0.000000 -1.000000 -0.000001
outer loop
vertex 1.413145 -1.529576 -0.585345
vertex -0.000000 -1.529575 -1.529578
vertex 0.298405 -1.529575 -1.500188
endloop
endfacet
facet normal 0.000000 -1.000000 -0.000001
outer loop
vertex -1.529577 -1.529577 0.000000
vertex -1.271797 -1.529576 -0.849788
vertex -0.585344 -1.529575 -1.413146
endloop
endfacet
facet normal 0.000000 -1.000000 -0.000001
outer loop
vertex -1.271797 -1.529576 -0.849788
vertex -1.529577 -1.529577 0.000000
vertex -1.500186 -1.529576 -0.298406
endloop
endfacet
facet normal -0.000000 -1.000000 -0.000001
outer loop
vertex -1.413144 -1.529577 0.585344
vertex 1.529577 -1.529577 -0.000001
vertex 0.585344 -1.529578 1.413143
endloop
endfacet
facet normal -0.098017 -0.000001 0.995185
outer loop
vertex -0.298403 1.529575 1.500188
vertex -0.298403 -1.529578 1.500185
vertex 0.000000 1.529575 1.529578
endloop
endfacet
facet normal 0.000000 -1.000000 -0.000001
outer loop
vertex 1.413145 -1.529576 -0.585345
vertex -0.585344 -1.529575 -1.413146
vertex -0.000000 -1.529575 -1.529578
endloop
endfacet
facet normal -0.000000 -1.000000 -0.000001
outer loop
vertex -1.413144 -1.529577 0.585344
vertex 1.413145 -1.529576 -0.585345
vertex 1.529577 -1.529577 -0.000001
endloop
endfacet
facet normal 0.000000 1.000000 0.000000
outer loop
vertex -0.298403 1.529575 1.500188
vertex 0.000000 1.529575 1.529578
vertex 0.298406 1.529575 1.500188
endloop
endfacet
facet normal -0.000000 1.000000 0.000000
outer loop
vertex 0.298406 1.529575 1.500188
vertex 0.585344 1.529575 1.413146
vertex 0.849787 1.529576 1.271798
endloop
endfacet
facet normal -0.000000 1.000000 0.000001
outer loop
vertex 1.271797 1.529576 0.849789
vertex 1.413144 1.529576 0.585345
vertex 1.081574 1.529576 1.081575
endloop
endfacet
facet normal -0.000000 1.000000 0.000001
outer loop
vertex 1.500186 1.529576 0.298407
vertex 0.849787 1.529576 1.271798
vertex 1.413144 1.529576 0.585345
endloop
endfacet
facet normal 0.000000 1.000000 0.000001
outer loop
vertex 1.500186 1.529576 0.298407
vertex 1.529577 1.529577 0.000001
vertex 1.500186 1.529577 -0.298404
endloop
endfacet
facet normal 0.000000 1.000000 0.000001
outer loop
vertex 1.271797 1.529577 -0.849786
vertex 1.500186 1.529576 0.298407
vertex 1.413145 1.529577 -0.585342
endloop
endfacet
facet normal 0.000000 1.000000 0.000000
outer loop
vertex 0.849787 1.529578 -1.271795
vertex 0.298405 1.529578 -1.500185
vertex 1.081574 1.529578 -1.081573
endloop
endfacet
facet normal 0.000000 1.000000 0.000000
outer loop
vertex 0.849787 1.529578 -1.271795
vertex 0.585343 1.529578 -1.413143
vertex 0.298405 1.529578 -1.500185
endloop
endfacet
facet normal -0.000000 1.000000 0.000000
outer loop
vertex 0.298405 1.529578 -1.500185
vertex -0.000000 1.529578 -1.529575
vertex -0.298406 1.529578 -1.500185
endloop
endfacet
facet normal 0.000001 1.000000 0.000002
outer loop
vertex -0.849788 1.529578 -1.271795
vertex -1.081575 1.529578 -1.081572
vertex -1.271797 1.529577 -0.849785
endloop
endfacet
facet normal -0.000000 1.000000 0.000001
outer loop
vertex -1.271797 1.529577 -0.849785
vertex -1.413145 1.529577 -0.585341
vertex -1.500186 1.529577 -0.298403
endloop
endfacet
facet normal 0.000000 1.000000 0.000001
outer loop
vertex -1.500186 1.529577 -0.298403
vertex -1.529577 1.529577 0.000003
vertex -1.500186 1.529576 0.298409
endloop
endfacet
facet normal -0.000000 1.000000 0.000001
outer loop
vertex -1.413144 1.529576 0.585347
vertex -1.081573 1.529576 1.081577
vertex -0.298403 1.529575 1.500188
endloop
endfacet
facet normal 0.000000 1.000000 0.000001
outer loop
vertex -0.298406 1.529578 -1.500185
vertex -0.585344 1.529578 -1.413143
vertex 0.298405 1.529578 -1.500185
endloop
endfacet
facet normal 0.000000 1.000000 0.000000
outer loop
vertex -0.849786 1.529576 1.271799
vertex -0.585342 1.529575 1.413147
vertex -0.298403 1.529575 1.500188
endloop
endfacet
facet normal 0.000000 1.000000 0.000001
outer loop
vertex -0.298403 1.529575 1.500188
vertex 0.298406 1.529575 1.500188
vertex 0.849787 1.529576 1.271798
endloop
endfacet
facet normal 0.000001 1.000000 0.000001
outer loop
vertex 1.413144 1.529576 0.585345
vertex 0.849787 1.529576 1.271798
vertex 1.081574 1.529576 1.081575
endloop
endfacet
facet normal -0.000000 1.000000 0.000001
outer loop
vertex 0.298405 1.529578 -1.500185
vertex 1.271797 1.529577 -0.849786
vertex 1.081574 1.529578 -1.081573
endloop
endfacet
facet normal 0.000000 1.000000 0.000001
outer loop
vertex -0.585344 1.529578 -1.413143
vertex -0.849788 1.529578 -1.271795
vertex -1.271797 1.529577 -0.849785
endloop
endfacet
facet normal -0.000000 1.000000 0.000001
outer loop
vertex -0.585344 1.529578 -1.413143
vertex -1.500186 1.529577 -0.298403
vertex 0.298405 1.529578 -1.500185
endloop
endfacet
facet normal 0.000000 1.000000 0.000001
outer loop
vertex -1.500186 1.529577 -0.298403
vertex -0.585344 1.529578 -1.413143
vertex -1.271797 1.529577 -0.849785
endloop
endfacet
facet normal 0.000000 1.000000 0.000001
outer loop
vertex -1.413144 1.529576 0.585347
vertex -1.271796 1.529576 0.849790
vertex -1.081573 1.529576 1.081577
endloop
endfacet
facet normal 0.000000 1.000000 0.000001
outer loop
vertex 1.500186 1.529576 0.298407
vertex 1.500186 1.529577 -0.298404
vertex 1.413145 1.529577 -0.585342
endloop
endfacet
facet normal -0.000000 1.000000 0.000001
outer loop
vertex -0.298403 1.529575 1.500188
vertex 0.849787 1.529576 1.271798
vertex 1.500186 1.529576 0.298407
endloop
endfacet
facet normal 0.000000 1.000000 0.000001
outer loop
vertex 1.500186 1.529576 0.298407
vertex 1.271797 1.529577 -0.849786
vertex 0.298405 1.529578 -1.500185
endloop
endfacet
facet normal 0.000000 1.000000 0.000001
outer loop
vertex -1.500186 1.529577 -0.298403
vertex -1.500186 1.529576 0.298409
vertex -1.413144 1.529576 0.585347
endloop
endfacet
facet normal 0.000000 1.000000 0.000001
outer loop
vertex -1.413144 1.529576 0.585347
vertex -0.298403 1.529575 1.500188
vertex 1.500186 1.529576 0.298407
endloop
endfacet
facet normal 0.000000 1.000000 0.000000
outer loop
vertex -1.081573 1.529576 1.081577
vertex -0.849786 1.529576 1.271799
vertex -0.298403 1.529575 1.500188
endloop
endfacet
facet normal -0.000000 1.000000 0.000001
outer loop
vertex -1.500186 1.529577 -0.298403
vertex -1.413144 1.529576 0.585347
vertex 1.500186 1.529576 0.298407
endloop
endfacet
endsolid Exported from Blender-2.71 (sub 0)
